<?xml version="1.0" encoding="utf-8"?>
<!-- Generator: Adobe Illustrator 27.8.1, SVG Export Plug-In . SVG Version: 6.00 Build 0)  -->
<svg version="1.1" id="Layer_1" xmlns="http://www.w3.org/2000/svg" xmlns:xlink="http://www.w3.org/1999/xlink" x="0px" y="0px"
	 viewBox="0 0 56 88" style="enable-background:new 0 0 56 88;" xml:space="preserve">
<style type="text/css">
	.st0{fill:#0CABEC;}
	.st1{fill:url(#SVGID_1_);}
	.st2{fill:url(#SVGID_00000112613030803652238940000017574129084732447880_);}
	.st3{fill:url(#SVGID_00000012455464809653596830000015406726646463666623_);}
	.st4{fill:url(#SVGID_00000092455904445206272460000016527858417399791276_);}
	.st5{fill:url(#SVGID_00000087399383011815564050000015138756591128257692_);}
	.st6{fill:url(#SVGID_00000053538000784106401630000018223266323328531620_);}
	.st7{fill:url(#SVGID_00000041284077371719855930000016775946543323907747_);}
	.st8{fill:url(#SVGID_00000114760258111770701740000012848065728069973901_);}
	.st9{fill:url(#SVGID_00000026878212999935029130000012265851213308840617_);}
	.st10{fill:url(#SVGID_00000030489165900158734520000015058744536738672314_);}
	.st11{fill:url(#SVGID_00000183210070396371248590000015274796332969791133_);}
	.st12{fill:url(#SVGID_00000183959214638277437220000016767053595136800942_);}
	.st13{fill:url(#SVGID_00000124140679857515920350000012771525850961535677_);}
</style>
<g>
	<path class="st0" d="M8.4,82.3H7.9c-2.3,0-4.2-1.9-4.2-4.2V7.6c0-2.3,1.9-4.2,4.2-4.2h0.5c2.3,0,4.2,1.9,4.2,4.2V78
		C12.6,80.4,10.7,82.3,8.4,82.3z"/>
	<path class="st0" d="M21.8,82.3h-0.5c-2.3,0-4.2-1.9-4.2-4.2V7.6c0-2.3,1.9-4.2,4.2-4.2h0.5c2.3,0,4.2,1.9,4.2,4.2V78
		C26,80.4,24.1,82.3,21.8,82.3z"/>
	<path class="st0" d="M35.2,82.3h-0.5c-2.3,0-4.2-1.9-4.2-4.2V7.6c0-2.3,1.9-4.2,4.2-4.2h0.5c2.3,0,4.2,1.9,4.2,4.2V78
		C39.4,80.4,37.5,82.3,35.2,82.3z"/>
	<path class="st0" d="M48.5,82.3h-0.5c-2.3,0-4.2-1.9-4.2-4.2V7.6c0-2.3,1.9-4.2,4.2-4.2h0.5c2.3,0,4.2,1.9,4.2,4.2V78
		C52.8,80.4,50.9,82.3,48.5,82.3z"/>
	
		<linearGradient id="SVGID_1_" gradientUnits="userSpaceOnUse" x1="8.1765" y1="-162.1268" x2="8.1765" y2="-118.5127" gradientTransform="matrix(1 0 0 -1 0 -114.3422)">
		<stop  offset="0" style="stop-color:#328CCB"/>
		<stop  offset="1" style="stop-color:#68C9DD"/>
		<stop  offset="1" style="stop-color:#58B647"/>
	</linearGradient>
	<path style="fill:url(#SVGID_1_);" d="M11.1,4.2c1.1,0.8,1.6,2.1,1.6,3.4V47H8.2c-1.1,0-1.8-0.3-2.6-0.8c-1.1-0.8-1.8-2.1-1.8-3.6v-35
		c0-0.5,0-0.8,0.3-1.3C4,6,4.2,5.7,4.2,5.5c0.3-0.3,0.3-0.5,0.5-0.8c0.8-1,2.1-1.6,3.4-1.6C9.5,3.1,10.3,3.4,11.1,4.2z"/>
	
		<linearGradient id="SVGID_00000156574730121835497120000007038416157569114756_" gradientUnits="userSpaceOnUse" x1="21.555" y1="-161.5443" x2="21.555" y2="-152.8162" gradientTransform="matrix(1 0 0 -1 0 -114.3422)">
		<stop  offset="0" style="stop-color:#328CCB"/>
		<stop  offset="1" style="stop-color:#68C9DD"/>
		<stop  offset="1" style="stop-color:#58B647"/>
	</linearGradient>
	
		<rect x="17.1" y="38.4" style="fill:url(#SVGID_00000156574730121835497120000007038416157569114756_);" width="8.9" height="8.8"/>
	
		<linearGradient id="SVGID_00000049195937396836146660000009278176348541914284_" gradientUnits="userSpaceOnUse" x1="34.9276" y1="-160.9765" x2="34.9276" y2="-152.2485" gradientTransform="matrix(1 0 0 -1 0 -114.3422)">
		<stop  offset="0" style="stop-color:#328CCB"/>
		<stop  offset="1" style="stop-color:#68C9DD"/>
		<stop  offset="1" style="stop-color:#58B647"/>
	</linearGradient>
	
		<rect x="30.5" y="37.8" style="fill:url(#SVGID_00000049195937396836146660000009278176348541914284_);" width="8.9" height="8.8"/>
	
		<linearGradient id="SVGID_00000130643957361982735040000006816116602192007305_" gradientUnits="userSpaceOnUse" x1="48.312" y1="-197.6964" x2="48.312" y2="-153.2049" gradientTransform="matrix(1 0 0 -1 0 -114.3422)">
		<stop  offset="0" style="stop-color:#328CCB"/>
		<stop  offset="1" style="stop-color:#68C9DD"/>
		<stop  offset="1" style="stop-color:#58B647"/>
	</linearGradient>
	<path style="fill:url(#SVGID_00000130643957361982735040000006816116602192007305_);" d="M52.8,42v35.8c0,2.4-2.1,4.5-4.5,4.5
		c-0.3,0-0.8,0-1.1-0.3c-1.8-0.5-3.4-2.1-3.4-4.2v-40h4.5C50.9,37.8,52.8,39.6,52.8,42z"/>
	
		<linearGradient id="SVGID_00000074415410268696187330000002327601124331029655_" gradientUnits="userSpaceOnUse" x1="429.0058" y1="43.6284" x2="429.0058" y2="52.3565" gradientTransform="matrix(-1 0 0 1 463.9334 29.5244)">
		<stop  offset="0" style="stop-color:#328CCB"/>
		<stop  offset="1" style="stop-color:#68C9DD"/>
		<stop  offset="1" style="stop-color:#58B647"/>
	</linearGradient>
	<path style="fill:url(#SVGID_00000074415410268696187330000002327601124331029655_);" d="M32,81c-1.1-0.8-1.6-2.1-1.6-3.4v-4.2h8.9
		v4.4c0,2.3-2.1,4.4-4.5,4.4C33.9,82,32.8,81.8,32,81z"/>
	
		<linearGradient id="SVGID_00000069389935056222253910000006051007382761599390_" gradientUnits="userSpaceOnUse" x1="442.3784" y1="43.6284" x2="442.3784" y2="52.3565" gradientTransform="matrix(-1 0 0 1 463.9334 29.5244)">
		<stop  offset="0" style="stop-color:#328CCB"/>
		<stop  offset="1" style="stop-color:#68C9DD"/>
		<stop  offset="1" style="stop-color:#58B647"/>
	</linearGradient>
	<path style="fill:url(#SVGID_00000069389935056222253910000006051007382761599390_);" d="M18.7,81c-1.1-0.8-1.6-2.1-1.6-3.4v-4.2
		H26v4.4c0,2.3-2.1,4.4-4.5,4.4C20.5,82,19.5,81.8,18.7,81z"/>
	
		<linearGradient id="SVGID_00000093857938766680542410000007139278486946297491_" gradientUnits="userSpaceOnUse" x1="452.8465" y1="56.4311" x2="452.8465" y2="56.6214" gradientTransform="matrix(-1 0 0 1 463.9334 29.5244)">
		<stop  offset="0" style="stop-color:#328CCB"/>
		<stop  offset="1" style="stop-color:#68C9DD"/>
		<stop  offset="1" style="stop-color:#58B647"/>
	</linearGradient>
	<path style="fill:url(#SVGID_00000093857938766680542410000007139278486946297491_);" d="M11.1,86.1c0-0.1,0-0.1,0-0.2"/>
	
		<linearGradient id="SVGID_00000087371998658845224700000005549511140190412200_" gradientUnits="userSpaceOnUse" x1="455.7544" y1="44.0139" x2="455.7544" y2="52.6348" gradientTransform="matrix(-1 0 0 1 463.9334 29.5244)">
		<stop  offset="0" style="stop-color:#328CCB"/>
		<stop  offset="1" style="stop-color:#68C9DD"/>
		<stop  offset="1" style="stop-color:#58B647"/>
	</linearGradient>
	<path style="fill:url(#SVGID_00000087371998658845224700000005549511140190412200_);" d="M8,82.3c2.5,0.2,4.7-1.8,4.6-4.4v-4.3
		c0,0-4.4,0-4.4,0c-1.9,0-3.7,1.4-4.3,3.1c-0.3,1-0.2,2.1,0.1,3.1c0.2,0.7,0.6,1.3,1.2,1.8c0.8,0.6,1.5,0.7,2.5,0.7"/>
	
		<linearGradient id="SVGID_00000080166516978753743880000009382137002404266889_" gradientUnits="userSpaceOnUse" x1="415.6214" y1="43.6284" x2="415.6214" y2="52.3565" gradientTransform="matrix(-1 0 0 1 463.9334 29.5244)">
		<stop  offset="0" style="stop-color:#328CCB"/>
		<stop  offset="1" style="stop-color:#68C9DD"/>
		<stop  offset="1" style="stop-color:#58B647"/>
	</linearGradient>
	<path style="fill:url(#SVGID_00000080166516978753743880000009382137002404266889_);" d="M45.4,81c-1.1-0.8-1.6-2.1-1.6-3.4v-4.2
		h8.9v4.4c0,2.3-2.1,4.4-4.5,4.4C47,82,46.2,81.8,45.4,81z"/>
	
		<linearGradient id="SVGID_00000176043159571627150990000005052705034803443878_" gradientUnits="userSpaceOnUse" x1="17.6111" y1="-169.8748" x2="17.6111" y2="-161.1467" gradientTransform="matrix(1 0 0 -1 3.9439 -157.6257)">
		<stop  offset="0" style="stop-color:#328CCB"/>
		<stop  offset="1" style="stop-color:#68C9DD"/>
		<stop  offset="1" style="stop-color:#58B647"/>
	</linearGradient>
	<path style="fill:url(#SVGID_00000176043159571627150990000005052705034803443878_);" d="M24.4,4.4C25.5,5.2,26,6.5,26,7.8v4.2
		l-8.9,0l0-4.4c0-2.3,2.1-4.4,4.5-4.4C22.6,3.4,23.7,3.6,24.4,4.4z"/>
	
		<linearGradient id="SVGID_00000098941371989904864470000007103984239718929311_" gradientUnits="userSpaceOnUse" x1="30.9574" y1="-169.8748" x2="30.9574" y2="-161.1467" gradientTransform="matrix(1 0 0 -1 3.9439 -157.6257)">
		<stop  offset="0" style="stop-color:#328CCB"/>
		<stop  offset="1" style="stop-color:#68C9DD"/>
		<stop  offset="1" style="stop-color:#58B647"/>
	</linearGradient>
	<path style="fill:url(#SVGID_00000098941371989904864470000007103984239718929311_);" d="M37.8,4.4c1,0.8,1.6,2.1,1.6,3.4v4.2
		l-8.9,0l0-4.4c0-2.3,2.1-4.4,4.4-4.4C35.9,3.4,37,3.6,37.8,4.4z"/>
	
		<linearGradient id="SVGID_00000106138455304437415950000007401906238972931488_" gradientUnits="userSpaceOnUse" x1="44.3543" y1="-169.6147" x2="44.3543" y2="-161.0107" gradientTransform="matrix(1 0 0 -1 3.9439 -157.6257)">
		<stop  offset="0" style="stop-color:#328CCB"/>
		<stop  offset="1" style="stop-color:#68C9DD"/>
		<stop  offset="1" style="stop-color:#58B647"/>
	</linearGradient>
	<path style="fill:url(#SVGID_00000106138455304437415950000007401906238972931488_);" d="M48.4,3.2c-2.4,0-4.6,2.1-4.6,4.4v4.3
		c0,0,4.5,0,4.5,0c1.9,0,3.7-1.4,4.3-3.1c0.3-1,0.2-2.1-0.1-3.1c-0.2-0.7-0.6-1.3-1.2-1.8c-0.8-0.6-1.5-0.7-2.5-0.7"/>
	
		<linearGradient id="SVGID_00000067214914938405997970000000312069406158029959_" gradientUnits="userSpaceOnUse" x1="4.2326" y1="-169.8748" x2="4.2326" y2="-161.1467" gradientTransform="matrix(1 0 0 -1 3.9439 -157.6257)">
		<stop  offset="0" style="stop-color:#328CCB"/>
		<stop  offset="1" style="stop-color:#68C9DD"/>
		<stop  offset="1" style="stop-color:#58B647"/>
	</linearGradient>
	<path style="fill:url(#SVGID_00000067214914938405997970000000312069406158029959_);" d="M11.1,4.4c1.1,0.8,1.6,2.1,1.6,3.4l0,4.2
		l-8.9,0l0-4.4c0-2.3,2.1-4.4,4.5-4.4C9.5,3.4,10.3,3.6,11.1,4.4z"/>
</g>
</svg>
