<svg 
    viewBox="0 0 70 32" 
    fill="none" 
    xmlns="http://www.w3.org/2000/svg"
>
    <defs>
        <linearGradient id="sawtli-gradient" x1="35" y1="0" x2="35" y2="32" gradientUnits="userSpaceOnUse">
            <stop stop-color="#22D3EE"/>
            <stop offset="1" stop-color="#3B82F6"/>
        </linearGradient>
    </defs>
    <g fill="url(#sawtli-gradient)">
        <rect y="9" width="4" height="14" rx="2"/>
        <rect x="6" y="6" width="4" height="20" rx="2"/>
        <rect x="12" y="3" width="4" height="26" rx="2"/>
        <rect x="18" y="3" width="4" height="26" rx="2"/>
        <rect x="25" y="0" width="3.5" height="32" rx="1.75"/>
        <rect x="30.5" y="0" width="3.5" height="32" rx="1.75"/>
        <rect x="36" y="0" width="3.5" height="32" rx="1.75"/>
        <rect x="41.5" y="0" width="3.5" height="32" rx="1.75"/>
        <rect x="48" y="3" width="4" height="26" rx="2"/>
        <rect x="54" y="3" width="4" height="26" rx="2"/>
        <rect x="60" y="6" width="4" height="20" rx="2"/>
        <rect x="66" y="9" width="4" height="14" rx="2"/>
    </g>
</svg>